<svg width="305" height="110" viewBox="0 0 305 110" fill="none" xmlns="http://www.w3.org/2000/svg">
<path d="M24.784 74.496C24.784 77.056 24.848 79.424 24.976 81.6C25.168 83.712 25.392 85.152 25.648 85.92L7.216 109.344L3.568 106.464C7.216 101.856 9.648 97.952 10.864 94.752C12.144 91.552 12.784 87.616 12.784 82.944V16.128L0.88 12.384L2.8 8.544H33.904V11.52L24.784 18.624V74.496ZM298.218 69.12C300.138 69.12 301.706 69.824 302.922 71.232C304.202 72.64 304.842 74.4 304.842 76.512C304.842 77.984 304.394 79.392 303.498 80.736C302.602 82.016 301.482 83.04 300.138 83.808C298.794 84.576 297.482 84.96 296.202 84.96C294.282 84.96 292.682 84.256 291.402 82.848C290.186 81.44 289.578 79.68 289.578 77.568C289.578 76.096 290.026 74.72 290.922 73.44C291.818 72.096 292.938 71.04 294.282 70.272C295.626 69.504 296.938 69.12 298.218 69.12Z" fill="#445BDB"/>
<path d="M76.7035 84.192C74.1435 84.704 71.0715 84.96 67.4875 84.96C63.2635 84.96 59.4555 83.872 56.0635 81.696C52.7355 79.456 50.1115 76.448 48.1915 72.672C46.3355 68.896 45.4075 64.736 45.4075 60.192C45.4075 55.264 46.9115 50.656 49.9195 46.368C52.9275 42.016 56.6715 38.56 61.1515 36C65.6955 33.376 70.0795 32.064 74.3035 32.064C80.3835 32.064 85.0875 34.464 88.4155 39.264C91.8075 44.064 93.5035 50.4 93.5035 58.272H57.9835C58.3675 63.712 59.8395 68.16 62.3995 71.616C65.0235 75.072 68.5755 76.8 73.0555 76.8C77.2155 76.8 83.1355 73.568 90.8155 67.104L93.6955 70.752L76.7035 84.192ZM68.7355 40.128C61.8235 40.128 58.2075 44.864 57.8875 54.336H80.3515C79.7755 50.88 79.1675 48.256 78.5275 46.464C77.9515 44.608 76.8955 43.104 75.3595 41.952C73.8875 40.736 71.6795 40.128 68.7355 40.128ZM183.223 36L161.815 84H154.519L144.535 59.52L132.151 84H124.855L109.879 47.424L100.951 42.24V39.264L117.367 31.2L121.015 45.696L132.727 74.208L142.135 53.952L139.447 47.424L130.519 42.24V39.264L146.935 31.2L150.583 45.696L162.007 73.44L173.527 46.56L160.183 36.864L162.103 33.024H183.223V36ZM221.829 84.192C219.269 84.704 216.197 84.96 212.613 84.96C208.389 84.96 204.581 83.872 201.189 81.696C197.861 79.456 195.237 76.448 193.317 72.672C191.461 68.896 190.533 64.736 190.533 60.192C190.533 55.264 192.037 50.656 195.045 46.368C198.053 42.016 201.797 38.56 206.277 36C210.821 33.376 215.205 32.064 219.429 32.064C225.509 32.064 230.213 34.464 233.541 39.264C236.933 44.064 238.629 50.4 238.629 58.272H203.109C203.493 63.712 204.965 68.16 207.525 71.616C210.149 75.072 213.701 76.8 218.181 76.8C222.341 76.8 228.261 73.568 235.941 67.104L238.821 70.752L221.829 84.192ZM213.861 40.128C206.949 40.128 203.333 44.864 203.013 54.336H225.477C224.901 50.88 224.293 48.256 223.653 46.464C223.077 44.608 222.021 43.104 220.485 41.952C219.013 40.736 216.805 40.128 213.861 40.128ZM275.644 84H248.86V81.024L257.404 74.304V15.264L248.86 9.31199V6.336L265.276 0.191998H268.924V76.8L277.564 80.16L275.644 84Z" fill="black"/>
</svg>
